<?xml version="1.0" encoding="UTF-8"?>
<!DOCTYPE svg PUBLIC "-//W3C//DTD SVG 1.1//EN" "http://www.w3.org/Graphics/SVG/1.1/DTD/svg11.dtd">
<svg xmlns="http://www.w3.org/2000/svg" version="1.1" width="1242px" height="100px" style="shape-rendering:geometricPrecision; text-rendering:geometricPrecision; image-rendering:optimizeQuality; fill-rule:evenodd; clip-rule:evenodd" xmlns:xlink="http://www.w3.org/1999/xlink">
<g><path style="opacity:0.833" fill="#00eeff" d="M 512.5,20.5 C 520.103,18.4184 522.936,21.0851 521,28.5C 513.089,31.0876 510.256,28.4209 512.5,20.5 Z"/></g>
<g><path style="opacity:0.898" fill="#00eeff" d="M 1070.5,20.5 C 1073.25,20.1866 1075.91,20.52 1078.5,21.5C 1080.36,28.4701 1077.69,30.9701 1070.5,29C 1069.21,26.1684 1069.21,23.3351 1070.5,20.5 Z"/></g>
<g><path style="opacity:0.876" fill="#00eeff" d="M 32.5,22.5 C 35.3245,22.0807 37.4912,23.0807 39,25.5C 41.3333,29.5 43.6667,33.5 46,37.5C 48.9175,33.3339 51.5841,29.0006 54,24.5C 59.0657,21.1063 61.0657,22.4396 60,28.5C 56.8333,34.1667 53.6667,39.8333 50.5,45.5C 53.4676,50.9639 56.6342,56.2972 60,61.5C 60.4955,63.4727 60.6621,65.4727 60.5,67.5C 58.2075,67.7564 56.0408,67.4231 54,66.5C 51.3333,61.8333 48.6667,57.1667 46,52.5C 43.3333,57.1667 40.6667,61.8333 38,66.5C 35.9592,67.4231 33.7925,67.7564 31.5,67.5C 31.3379,65.4727 31.5045,63.4727 32,61.5C 35.4185,56.3318 38.5852,50.9984 41.5,45.5C 38.3333,39.8333 35.1667,34.1667 32,28.5C 31.3224,26.4024 31.4891,24.4024 32.5,22.5 Z"/></g>
<g><path style="opacity:0.927" fill="#00eeff" d="M 75.5,22.5 C 81.6208,22.0899 87.6208,22.5899 93.5,24C 106.4,37.6766 106.733,51.6766 94.5,66C 87.9504,67.4204 81.2837,67.9204 74.5,67.5C 73.4251,63.062 75.0917,61.062 79.5,61.5C 79.5,50.8333 79.5,40.1667 79.5,29.5C 74.5904,29.4236 73.2571,27.0902 75.5,22.5 Z M 87.5,29.5 C 88.4959,29.4142 89.3292,29.7476 90,30.5C 92.7288,35.2875 94.8955,40.2875 96.5,45.5C 94.9795,51.5415 92.1462,56.8748 88,61.5C 87.5002,50.8385 87.3335,40.1719 87.5,29.5 Z"/></g>
<g><path style="opacity:0.892" fill="#00eeff" d="M 172.5,22.5 C 178.093,22.1934 183.593,22.5268 189,23.5C 189.743,25.4406 189.576,27.2739 188.5,29C 183.582,29.1948 178.749,29.6948 174,30.5C 171.271,35.2875 169.105,40.2875 167.5,45.5C 169.105,50.7125 171.271,55.7125 174,60.5C 178.749,61.3052 183.582,61.8052 188.5,62C 189.406,63.6995 189.739,65.5328 189.5,67.5C 183.158,67.6662 176.825,67.4995 170.5,67C 163.451,59.0907 160.285,49.924 161,39.5C 163.398,32.6536 167.232,26.9869 172.5,22.5 Z"/></g>
<g><path style="opacity:0.869" fill="#00eeff" d="M 693.5,22.5 C 696.59,21.83 698.257,22.9967 698.5,26C 696.646,30.1965 694.146,34.0298 691,37.5C 688.674,46.5156 690.674,54.1822 697,60.5C 698.202,62.6775 698.702,65.0108 698.5,67.5C 696.473,67.6621 694.473,67.4955 692.5,67C 689.281,63.4482 686.448,59.6149 684,55.5C 683.333,48.5 683.333,41.5 684,34.5C 686.934,30.2877 690.101,26.2877 693.5,22.5 Z"/></g>
<g><path style="opacity:0.864" fill="#00eeff" d="M 810.5,22.5 C 811.873,22.3433 813.207,22.51 814.5,23C 824.182,31.7323 827.349,42.5656 824,55.5C 821.552,59.6149 818.719,63.4482 815.5,67C 813.527,67.4955 811.527,67.6621 809.5,67.5C 809.34,65.8008 809.506,64.1341 810,62.5C 812.333,59.1667 814.667,55.8333 817,52.5C 817.667,47.5 817.667,42.5 817,37.5C 814.667,34.5 812.333,31.5 810,28.5C 809.322,26.4024 809.489,24.4024 810.5,22.5 Z"/></g>
<g><path style="opacity:0.875" fill="#00eeff" d="M 889.5,22.5 C 899.167,22.5 908.833,22.5 918.5,22.5C 918.823,26.226 918.489,29.8927 917.5,33.5C 913.694,35.0402 911.694,33.7069 911.5,29.5C 910.167,29.5 908.833,29.5 907.5,29.5C 907.667,41.8378 907.5,54.1712 907,66.5C 905,67.8333 903,67.8333 901,66.5C 900.5,54.1712 900.333,41.8378 900.5,29.5C 899.167,29.5 897.833,29.5 896.5,29.5C 896.306,33.7069 894.306,35.0402 890.5,33.5C 889.511,29.8927 889.177,26.226 889.5,22.5 Z"/></g>
<g><path style="opacity:0.935" fill="#00eeff" d="M 1193.5,22.5 C 1198.1,22.2 1202.6,22.5333 1207,23.5C 1207.5,36.1623 1207.67,48.8289 1207.5,61.5C 1210.19,61.3359 1212.85,61.5026 1215.5,62C 1216.55,63.3876 1216.72,64.8876 1216,66.5C 1208.33,67.8333 1200.67,67.8333 1193,66.5C 1192.28,64.8876 1192.45,63.3876 1193.5,62C 1195.81,61.5034 1198.14,61.3367 1200.5,61.5C 1200.5,50.8333 1200.5,40.1667 1200.5,29.5C 1194.02,30.8163 1191.69,28.483 1193.5,22.5 Z"/></g>
<g><path style="opacity:0.918" fill="#00eeff" d="M 466.5,25.5 C 468.5,25.5 470.5,25.5 472.5,25.5C 473.159,28.4552 473.492,31.4552 473.5,34.5C 477.514,34.3345 481.514,34.5012 485.5,35C 488.167,37 488.167,39 485.5,41C 481.514,41.4988 477.514,41.6655 473.5,41.5C 473.334,47.8421 473.5,54.1754 474,60.5C 478.664,62.6045 482.164,61.4379 484.5,57C 486.112,56.2797 487.612,56.4464 489,57.5C 489.583,65.2442 485.917,68.5775 478,67.5C 472.156,68.8827 468.156,66.8827 466,61.5C 465.5,54.8417 465.334,48.175 465.5,41.5C 460.672,41.6148 459.339,39.4481 461.5,35C 462.793,34.51 464.127,34.3433 465.5,34.5C 465.368,31.4299 465.701,28.4299 466.5,25.5 Z"/></g>
<g><path style="opacity:0.897" fill="#00eeff" d="M 724.5,25.5 C 726.467,25.2606 728.301,25.5939 730,26.5C 730.497,29.146 730.664,31.8127 730.5,34.5C 734.514,34.3345 738.514,34.5012 742.5,35C 744.698,36.67 745.032,38.67 743.5,41C 739.179,41.499 734.846,41.6657 730.5,41.5C 730.334,47.8421 730.5,54.1754 731,60.5C 735.664,62.6045 739.164,61.4379 741.5,57C 744.862,55.7072 746.862,56.7072 747.5,60C 746.016,66.2528 742.016,68.7528 735.5,67.5C 730.363,68.5554 726.529,66.8888 724,62.5C 723.5,55.5079 723.334,48.5079 723.5,41.5C 717.984,41.5266 716.651,39.36 719.5,35C 720.793,34.51 722.127,34.3433 723.5,34.5C 723.264,31.3915 723.597,28.3915 724.5,25.5 Z"/></g>
<g><path style="opacity:0.912" fill="#00eeff" d="M 289.5,33.5 C 292.547,32.8554 294.713,33.8554 296,36.5C 301.562,32.4612 307.062,32.6279 312.5,37C 314.709,38.8734 316.542,41.04 318,43.5C 321.93,55.7671 318.096,64.2671 306.5,69C 302.677,69.6165 299.177,68.7832 296,66.5C 295.501,70.8206 295.334,75.1539 295.5,79.5C 293.208,79.7564 291.041,79.4231 289,78.5C 288.199,63.4554 288.366,48.4554 289.5,33.5 Z M 301.5,40.5 C 310.496,42.1376 313.663,47.471 311,56.5C 308.95,58.8878 306.616,60.8878 304,62.5C 293.637,56.2653 292.804,48.932 301.5,40.5 Z"/></g>
<g><path style="opacity:0.917" fill="#00eeff" d="M 211.5,34.5 C 230.176,33.3712 237.009,42.0379 232,60.5C 230.5,63.3333 228.333,65.5 225.5,67C 205.678,70.5045 198.178,62.3379 203,42.5C 205.098,38.8972 207.932,36.2305 211.5,34.5 Z M 212.5,41.5 C 224.844,40.034 229.011,45.3673 225,57.5C 222.089,61.2771 218.256,62.4437 213.5,61C 211.951,59.786 210.785,58.286 210,56.5C 208.776,51.0435 209.609,46.0435 212.5,41.5 Z"/></g>
<g><path style="opacity:0.909" fill="#00eeff" d="M 247.5,34.5 C 251.375,33.8742 253.209,35.5408 253,39.5C 258.265,34.2475 264.432,33.0808 271.5,36C 275.352,39.3083 276.352,43.3083 274.5,48C 269.638,49.4759 267.471,47.6426 268,42.5C 265.936,41.4086 263.769,41.2419 261.5,42C 258.573,44.3824 255.739,46.8824 253,49.5C 252.501,55.4908 252.334,61.4908 252.5,67.5C 250.208,67.7564 248.041,67.4231 246,66.5C 245.333,56.5 245.333,46.5 246,36.5C 246.717,35.9558 247.217,35.2891 247.5,34.5 Z"/></g>
<g><path style="opacity:0.909" fill="#00eeff" d="M 340.5,34.5 C 358.676,33.1942 365.51,41.5275 361,59.5C 359.923,62.913 357.756,65.413 354.5,67C 334.654,70.4816 327.154,62.3149 332,42.5C 334.098,38.8972 336.932,36.2305 340.5,34.5 Z M 341.5,41.5 C 353.452,40.331 357.618,45.6643 354,57.5C 351.045,61.2765 347.212,62.4432 342.5,61C 340.667,60.5 339.5,59.3333 339,57.5C 338.333,53.1667 338.333,48.8333 339,44.5C 340.045,43.6266 340.878,42.6266 341.5,41.5 Z"/></g>
<g><path style="opacity:0.881" fill="#00eeff" d="M 376.5,34.5 C 380.044,34.2388 381.878,35.9055 382,39.5C 388.693,33.1982 395.693,32.8649 403,38.5C 404.457,41.366 404.79,44.366 404,47.5C 399.051,49.7345 396.551,48.0678 396.5,42.5C 395.5,42.1667 394.5,41.8333 393.5,41.5C 388.974,43.0259 385.14,45.6925 382,49.5C 381.667,55.1667 381.333,60.8333 381,66.5C 379,67.8333 377,67.8333 375,66.5C 374.333,56.5 374.333,46.5 375,36.5C 375.717,35.9558 376.217,35.2891 376.5,34.5 Z"/></g>
<g><path style="opacity:0.921" fill="#00eeff" d="M 424.5,34.5 C 429.511,34.3341 434.511,34.5007 439.5,35C 441.848,35.3459 443.681,36.5125 445,38.5C 446.42,48.0862 446.92,57.7529 446.5,67.5C 438.229,67.2827 429.896,67.116 421.5,67C 420.333,65.8333 419.167,64.6667 418,63.5C 417.333,59.5 417.333,55.5 418,51.5C 419.637,49.1898 421.804,47.6898 424.5,47C 429.533,46.829 434.533,46.329 439.5,45.5C 438.754,44.2638 438.421,42.9305 438.5,41.5C 433.821,41.6658 429.155,41.4992 424.5,41C 421.939,38.8441 421.939,36.6774 424.5,34.5 Z M 425.5,53.5 C 429.846,53.3343 434.179,53.501 438.5,54C 439.059,54.7247 439.392,55.5581 439.5,56.5C 435.926,61.0469 431.26,62.5469 425.5,61C 424.221,58.5024 424.221,56.0024 425.5,53.5 Z"/></g>
<g><path style="opacity:0.904" fill="#00eeff" d="M 507.5,34.5 C 511.902,34.2281 516.235,34.5614 520.5,35.5C 521.498,44.1411 521.831,52.8078 521.5,61.5C 524.247,61.1866 526.914,61.52 529.5,62.5C 530.833,63.8333 530.833,65.1667 529.5,66.5C 521.833,67.8333 514.167,67.8333 506.5,66.5C 505.141,64.694 505.475,63.194 507.5,62C 509.81,61.5034 512.143,61.3367 514.5,61.5C 514.5,54.8333 514.5,48.1667 514.5,41.5C 512.143,41.6633 509.81,41.4966 507.5,41C 505.069,38.8938 505.069,36.7272 507.5,34.5 Z"/></g>
<g><path style="opacity:0.912" fill="#00eeff" d="M 554.5,34.5 C 574.186,33.0985 581.019,42.0985 575,61.5C 573.167,63.3333 571.333,65.1667 569.5,67C 548.474,70.9608 540.974,62.4608 547,41.5C 548.742,38.2543 551.242,35.921 554.5,34.5 Z M 556.5,41.5 C 559.518,41.3354 562.518,41.502 565.5,42C 566.333,42.8333 567.167,43.6667 568,44.5C 568.667,49.1667 568.667,53.8333 568,58.5C 563.333,62.5 558.667,62.5 554,58.5C 553.333,53.8333 553.333,49.1667 554,44.5C 555.045,43.6266 555.878,42.6266 556.5,41.5 Z"/></g>
<g><path style="opacity:0.905" fill="#00eeff" d="M 590.5,34.5 C 593.808,33.9738 595.974,35.3072 597,38.5C 603.076,33.6034 609.41,33.2701 616,37.5C 616.862,39.087 617.529,40.7536 618,42.5C 618.5,50.8267 618.666,59.16 618.5,67.5C 616.208,67.7564 614.041,67.4231 612,66.5C 611.776,58.4571 611.109,50.4571 610,42.5C 609.107,41.9186 608.107,41.5852 607,41.5C 603.497,42.498 600.33,44.1646 597.5,46.5C 596.669,52.8072 596.169,59.1406 596,65.5C 594.246,67.25 592.079,67.9167 589.5,67.5C 589.19,56.4187 589.523,45.4187 590.5,34.5 Z"/></g>
<g><path style="opacity:0.928" fill="#00eeff" d="M 761.5,34.5 C 764.689,35.5146 767.856,35.5146 771,34.5C 772.984,34.7413 774.817,35.4079 776.5,36.5C 784.166,32.9152 788.666,35.2486 790,43.5C 790.667,51.1667 790.667,58.8333 790,66.5C 788,67.8333 786,67.8333 784,66.5C 783.829,58.4193 782.995,50.4193 781.5,42.5C 780.914,42.7093 780.414,43.0426 780,43.5C 778.902,51.464 778.402,59.464 778.5,67.5C 776.208,67.7564 774.041,67.4231 772,66.5C 771.667,58.1667 771.333,49.8333 771,41.5C 770,42.5 769,43.5 768,44.5C 767.667,51.8333 767.333,59.1667 767,66.5C 764.959,67.4231 762.792,67.7564 760.5,67.5C 760.19,56.4187 760.523,45.4187 761.5,34.5 Z"/></g>
<g><path style="opacity:0.935" fill="#00eeff" d="M 940.5,34.5 C 957.222,31.8884 964.222,38.8884 961.5,55.5C 954.167,55.5 946.833,55.5 939.5,55.5C 939.393,57.9032 940.393,59.7365 942.5,61C 948.5,61.3333 954.5,61.6667 960.5,62C 961.406,63.6995 961.739,65.5328 961.5,67.5C 953.826,67.6664 946.159,67.4997 938.5,67C 936.667,65.1667 934.833,63.3333 933,61.5C 932.333,54.8333 932.333,48.1667 933,41.5C 935.015,38.5883 937.515,36.255 940.5,34.5 Z M 942.5,41.5 C 950.064,39.3703 954.064,42.0369 954.5,49.5C 949.5,49.5 944.5,49.5 939.5,49.5C 939.016,46.2118 940.016,43.5452 942.5,41.5 Z"/></g>
<g><path style="opacity:0.91" fill="#00eeff" d="M 976.5,34.5 C 980.251,34.0824 982.418,35.749 983,39.5C 987.14,34.7886 992.306,33.2886 998.5,35C 1004.09,37.4024 1005.93,41.5691 1004,47.5C 1002,48.8333 1000,48.8333 998,47.5C 998.296,41.9533 995.796,40.1199 990.5,42C 988.295,44.5402 985.795,46.7068 983,48.5C 982.792,54.551 982.292,60.551 981.5,66.5C 979.604,67.4656 977.604,67.7989 975.5,67.5C 975.19,56.4187 975.523,45.4187 976.5,34.5 Z"/></g>
<g><path style="opacity:0.885" fill="#00eeff" d="M 1019.5,34.5 C 1022.66,35.7474 1025.83,35.7474 1029,34.5C 1030.98,34.7413 1032.82,35.4079 1034.5,36.5C 1038.64,33.6295 1042.47,33.9629 1046,37.5C 1047.59,47.071 1048.25,56.7377 1048,66.5C 1045.96,67.4231 1043.79,67.7564 1041.5,67.5C 1040.75,58.8665 1040.25,50.1999 1040,41.5C 1039,42.5 1038,43.5 1037,44.5C 1036.67,51.8333 1036.33,59.1667 1036,66.5C 1034,67.8333 1032,67.8333 1030,66.5C 1029.67,58.1667 1029.33,49.8333 1029,41.5C 1027.98,42.6872 1026.81,43.6872 1025.5,44.5C 1024.67,51.8108 1024.17,59.1441 1024,66.5C 1022,67.8333 1020,67.8333 1018,66.5C 1017.33,56.5 1017.33,46.5 1018,36.5C 1018.72,35.9558 1019.22,35.2891 1019.5,34.5 Z"/></g>
<g><path style="opacity:0.942" fill="#00eeff" d="M 1065.5,34.5 C 1069.51,34.3345 1073.51,34.5012 1077.5,35C 1078,35.5 1078.5,36 1079,36.5C 1079.5,44.8267 1079.67,53.16 1079.5,61.5C 1081.86,61.3367 1084.19,61.5034 1086.5,62C 1087.55,63.3876 1087.72,64.8876 1087,66.5C 1079.33,67.8333 1071.67,67.8333 1064,66.5C 1063.28,64.8876 1063.45,63.3876 1064.5,62C 1066.81,61.5034 1069.14,61.3367 1071.5,61.5C 1071.5,54.8333 1071.5,48.1667 1071.5,41.5C 1069.08,41.7076 1066.75,41.3742 1064.5,40.5C 1063.23,38.1937 1063.56,36.1937 1065.5,34.5 Z"/></g>
<g><path style="opacity:0.921" fill="#00eeff" d="M 1105.5,34.5 C 1108.86,33.7904 1110.69,35.1238 1111,38.5C 1118.42,32.8453 1125.42,33.1787 1132,39.5C 1133.13,48.4803 1133.47,57.4803 1133,66.5C 1130.96,67.4231 1128.79,67.7564 1126.5,67.5C 1126.04,59.1688 1125.54,50.8355 1125,42.5C 1119.56,41.5348 1114.89,43.2015 1111,47.5C 1110.5,54.1583 1110.33,60.825 1110.5,67.5C 1108.21,67.7564 1106.04,67.4231 1104,66.5C 1103.33,56.5 1103.33,46.5 1104,36.5C 1104.72,35.9558 1105.22,35.2891 1105.5,34.5 Z"/></g>
<g><path style="opacity:0.924" fill="#00eeff" d="M 1154.5,34.5 C 1159.18,34.3342 1163.85,34.5008 1168.5,35C 1171.2,35.6898 1173.36,37.1898 1175,39.5C 1176.27,48.4718 1176.61,57.4718 1176,66.5C 1170.63,66.6409 1165.13,66.9743 1159.5,67.5C 1151.17,69.183 1146.84,65.8497 1146.5,57.5C 1146.03,52.0312 1148.36,48.5312 1153.5,47C 1158.49,46.5007 1163.49,46.3341 1168.5,46.5C 1168.71,44.8561 1168.38,43.3561 1167.5,42C 1162.83,41.6667 1158.17,41.3333 1153.5,41C 1152.09,38.5359 1152.42,36.3692 1154.5,34.5 Z M 1154.5,53.5 C 1158.85,53.3343 1163.18,53.501 1167.5,54C 1168.06,54.7247 1168.39,55.5581 1168.5,56.5C 1165.38,61.1194 1161.04,62.6194 1155.5,61C 1153.16,58.8063 1152.83,56.3063 1154.5,53.5 Z"/></g>
</svg>
